PathFileType	4	(X/Y/Z)	C:\Users\alexw\Dropbox\ABI\Level_8_Lab\OpenSim Tools\ProcessingTrialDataFromVicon\Output\AB08\_12Mar_ss_12ms_01\_12Mar_ss_12ms_01.trc
DataRate	CameraRate	NumFrames	NumMarkers	Units	OrigDataRate	OrigDataStartFrame	OrigNumFrames
200.000000	200.000000	8	42	mm	200.000000	3441	6093
Frame#	Time	LASI			RASI			LPSI			RPSI			LTH1			LTH2			LTH3			LTH4			LMFC			LLFC			LTB1			LTB2			LTB3			LTB4			LMMAL			LLMAL			LCAL			LToe			LMT1			LMT5			RTH1			RTH2			RTH3			RTH4			RMFC			RLFC			RTB1			RTB2			RTB3			RTB4			RMMAL			RLMAL			RCAL			RToe			RMT1			RMT5			C7			T10			LACR1			RACR1			CLAV			RBack			
		X1	Y1	Z1	X2	Y2	Z2	X3	Y3	Z3	X4	Y4	Z4	X5	Y5	Z5	X6	Y6	Z6	X7	Y7	Z7	X8	Y8	Z8	X9	Y9	Z9	X10	Y10	Z10	X11	Y11	Z11	X12	Y12	Z12	X13	Y13	Z13	X14	Y14	Z14	X15	Y15	Z15	X16	Y16	Z16	X17	Y17	Z17	X18	Y18	Z18	X19	Y19	Z19	X20	Y20	Z20	X21	Y21	Z21	X22	Y22	Z22	X23	Y23	Z23	X24	Y24	Z24	X25	Y25	Z25	X26	Y26	Z26	X27	Y27	Z27	X28	Y28	Z28	X29	Y29	Z29	X30	Y30	Z30	X31	Y31	Z31	X32	Y32	Z32	X33	Y33	Z33	X34	Y34	Z34	X35	Y35	Z35	X36	Y36	Z36	X37	Y37	Z37	X38	Y38	Z38	X39	Y39	Z39	X40	Y40	Z40	X41	Y41	Z41	X42	Y42	Z42	

3441	17.195	300.89603	940.68353	-911.10339	558.04877	959.52582	-936.30145	397.71997	978.48022	-699.49390	520.68970	970.79944	-710.09943	310.11136	654.19299	-877.13501	302.34653	627.12933	-848.51495	351.86588	584.08087	-838.90051	332.92380	615.55859	-858.57800	432.41418	506.58691	-752.88153	306.94281	515.53802	-723.13434	288.87753	423.07736	-676.86292	293.37265	343.73538	-647.99078	308.80685	329.48801	-697.83167	300.67349	369.55362	-699.75568	415.96503	126.70792	-624.05841	331.12164	123.63601	-601.73914	373.05334	64.60812	-520.52631	375.76819	38.00288	-824.48273	408.80524	46.97648	-733.24255	285.85056	39.45737	-710.09851	551.24164	738.15540	-1047.91050	546.50323	674.45435	-1067.82560	597.61615	643.52893	-1051.25730	598.70404	700.00232	-1036.45420	468.99713	532.97369	-1068.00290	598.80243	539.34473	-1040.95650	612.92151	437.50137	-1087.56770	602.70325	407.66782	-1112.43850	593.48944	363.12494	-1135.47790	619.16901	348.21722	-1090.40700	516.17474	162.25101	-1187.36360	597.43237	135.02147	-1152.33720	534.92859	55.04559	-1121.05810	587.00177	174.02069	-1392.28820	541.22162	130.11864	-1319.98460	650.99957	118.07544	-1280.49980	402.89319	1479.50400	-798.69971	406.39838	1230.87230	-711.88458	244.37852	1440.22780	-876.38239	565.06470	1450.23880	-835.24194	420.41235	1397.24680	-945.22668	514.71051	1384.91060	-721.41113
3442	17.2	301.33313	939.32697	-910.70520	558.56329	957.77777	-936.32367	398.57220	977.08209	-699.19513	521.55035	969.37592	-710.25897	310.62628	653.16901	-875.55414	302.84607	626.14557	-846.93158	352.51376	583.22327	-836.90497	333.16641	614.71942	-857.03857	432.64746	506.14603	-750.18646	307.39532	515.10022	-720.82550	289.09637	422.83810	-673.56470	293.58115	343.84091	-644.32306	308.96591	329.15457	-694.03271	301.12714	369.22345	-696.07526	416.11618	127.02417	-618.42303	331.24487	124.12524	-596.16309	373.29941	65.22963	-514.67242	375.80804	37.92214	-818.45703	407.67545	46.86547	-727.30933	285.56964	39.60566	-704.17572	551.47620	736.48645	-1047.44190	546.29236	672.81964	-1067.35140	597.06799	641.43085	-1050.29550	598.55701	698.00848	-1035.65380	467.81671	531.80164	-1067.61400	597.91949	537.53455	-1040.56230	612.03351	436.49155	-1088.26250	601.93347	407.05634	-1113.73300	592.73096	362.92154	-1137.47270	618.13788	347.31863	-1092.49340	515.30853	163.09323	-1193.36950	596.11456	135.22594	-1158.05800	533.55365	54.72503	-1128.25120	588.38873	178.33308	-1397.18750	541.79932	133.08618	-1326.43740	650.69958	120.39953	-1285.93070	403.59161	1478.24660	-798.88678	407.10718	1229.75740	-711.89008	245.20624	1438.90440	-876.78778	565.79517	1448.88450	-835.30157	421.26044	1395.81510	-945.42920	515.28632	1383.60270	-721.53418
3443	17.205	301.65820	937.95313	-910.23352	559.05096	956.14539	-936.42334	399.33954	975.69928	-698.91705	522.39355	967.96210	-710.49475	311.13757	652.07361	-874.04663	303.37521	625.22565	-845.43182	353.21527	582.46393	-835.16852	333.32101	613.76062	-855.61200	432.90109	505.77713	-747.81946	307.65857	514.59583	-718.57367	289.39777	422.81693	-670.35107	293.80771	343.97931	-640.53674	309.15854	328.90530	-690.10522	301.15137	369.07019	-692.52332	416.26901	127.38706	-612.89117	331.35880	124.62018	-590.56482	373.41336	65.95493	-508.79193	375.73367	37.77201	-812.33405	407.57590	46.85773	-721.32257	285.48935	39.62157	-698.07056	551.70221	734.89655	-1047.07600	546.19202	671.20483	-1066.78890	596.57263	639.51538	-1049.52890	598.46051	696.12219	-1035.05580	466.63583	530.81140	-1067.37840	597.13086	535.77032	-1040.17140	611.26898	435.38855	-1088.70680	601.31793	406.41937	-1114.70510	592.16650	362.68103	-1139.18400	617.11322	346.17282	-1094.34440	514.31830	163.79413	-1198.77120	594.70685	135.15416	-1163.10610	532.03131	54.25532	-1135.75450	589.41125	182.04982	-1401.29810	542.16040	135.70920	-1332.12350	650.65717	122.53953	-1290.63330	404.36392	1476.94650	-799.03937	407.77560	1228.57750	-711.84222	246.09695	1437.56870	-877.17157	566.61389	1447.50090	-835.42249	422.04459	1394.38090	-945.62256	515.79468	1382.22030	-721.61389
3444	17.21	301.96240	936.63855	-909.90405	559.51898	954.52039	-936.55499	400.23474	974.20618	-698.72491	523.28802	966.51202	-710.63892	311.51215	650.93909	-872.68597	303.70734	624.20776	-843.97687	353.53323	581.52698	-833.52710	334.35425	612.89832	-853.65326	433.09140	505.30930	-745.53473	307.89566	514.09302	-716.43591	289.74768	422.71271	-667.41577	293.87772	344.12589	-636.93921	309.29245	328.64563	-686.38751	301.20013	368.88956	-689.12927	416.34433	127.80036	-607.46930	331.37482	125.22565	-585.01178	373.60730	66.73749	-502.98239	375.62216	37.60507	-806.37738	407.51523	46.93531	-715.23383	285.47986	39.61722	-691.97491	552.03796	733.42694	-1047.01120	545.96600	669.73486	-1066.41390	596.22363	637.70813	-1049.13720	598.58643	694.31213	-1034.62050	465.61917	529.99036	-1067.23000	596.26489	534.04431	-1039.80040	610.47101	434.26111	-1089.32650	600.59613	405.72647	-1115.58830	591.44159	362.24466	-1140.78050	616.05231	345.16507	-1096.00120	513.48663	164.33569	-1203.29460	593.56885	135.12947	-1167.47900	530.37701	53.97716	-1141.77920	590.17731	185.17885	-1405.06310	542.25391	137.89667	-1336.94800	650.39288	124.06887	-1294.63780	405.15878	1475.64470	-799.25031	408.49728	1227.43490	-711.94165	246.88989	1436.21070	-877.48657	567.41333	1446.11840	-835.48102	422.87775	1392.96240	-945.82477	516.41321	1380.84730	-721.77399
3445	17.215	302.24237	935.33990	-909.60168	559.93475	952.95770	-936.72406	401.19577	972.76886	-698.49573	524.35175	965.07343	-711.03259	311.86731	649.86322	-871.57599	304.11182	623.21252	-842.66351	353.77740	580.52264	-832.01196	334.68250	611.83893	-852.37268	433.23578	504.76129	-743.42566	308.17859	513.66675	-714.44696	290.00922	422.67270	-664.45148	294.20593	344.31097	-633.38458	309.51898	328.52142	-682.72131	301.69489	368.44608	-685.83716	416.41882	128.20251	-602.00671	331.43857	125.79646	-579.40173	373.73163	67.66611	-497.18292	375.54874	37.44345	-800.33038	407.41962	46.92606	-709.20160	285.49347	39.60829	-685.88312	552.49109	732.10602	-1046.96920	545.88190	668.38977	-1066.11460	595.83948	636.01410	-1048.74560	598.44354	692.49127	-1034.65480	464.59741	529.25159	-1067.23120	595.47961	532.53284	-1039.53220	609.73999	433.21158	-1089.90370	599.74152	404.94632	-1116.56010	590.73535	361.74612	-1142.13780	615.09949	344.10663	-1097.47230	512.20465	164.63588	-1207.44920	592.26678	134.91228	-1171.16700	528.71466	53.44262	-1146.83520	590.62952	187.70247	-1408.61050	542.02179	139.62672	-1340.92410	649.98285	125.16083	-1298.06320	405.98486	1474.37180	-799.42145	409.35803	1226.30480	-711.93848	247.71396	1434.92800	-877.79865	568.27399	1444.78190	-835.74622	423.61853	1391.51860	-946.04523	517.16931	1379.49370	-721.94873
3446	17.22	302.65451	934.16150	-909.35431	560.25165	951.38116	-936.90857	402.11914	971.28906	-698.23853	525.41895	963.57666	-711.39850	312.12845	648.74860	-870.36871	304.41385	622.23950	-841.39166	354.45755	579.35706	-830.45581	334.91010	610.70563	-851.06390	433.36917	504.28085	-741.51617	308.39178	513.20367	-712.46149	290.06735	422.65549	-661.71466	294.29626	344.39944	-629.76563	309.49442	328.14639	-678.92383	301.60220	368.19254	-682.54626	416.53845	128.74205	-596.61926	331.47458	126.45476	-573.99323	373.95538	68.67848	-491.37949	375.46674	37.20583	-794.32288	407.23526	46.94864	-703.11267	285.63150	39.43150	-679.58246	552.79620	730.86713	-1047.04570	545.89386	667.08606	-1066.07480	595.60217	634.45154	-1048.48890	598.83289	691.11914	-1034.33980	463.76395	528.73608	-1067.40470	594.87665	530.98364	-1039.32930	608.94995	432.03815	-1090.38780	599.03900	404.01746	-1117.43660	589.74799	361.15143	-1143.42740	614.08557	342.97614	-1098.83650	510.96762	164.82265	-1210.57530	591.03284	134.46397	-1174.26380	526.82050	52.98441	-1151.11680	590.49615	189.44055	-1411.06030	541.47797	140.86053	-1344.10860	649.22430	125.69854	-1300.89200	406.82816	1473.10560	-799.56091	410.12982	1225.26660	-711.82867	248.63695	1433.61280	-878.13702	569.08221	1443.38560	-835.99048	424.53030	1390.19620	-946.27429	517.87311	1378.10670	-722.08179
3447	17.225	302.97989	932.99664	-909.09467	560.71033	949.94336	-937.22424	403.10556	969.88177	-698.11981	526.43414	962.21808	-711.71887	312.27280	647.61609	-869.32758	304.59683	621.26447	-840.19507	354.38202	578.64783	-829.64581	335.08655	609.74854	-850.08746	433.43353	503.72934	-739.67383	308.56152	512.76416	-710.63928	290.20236	422.64700	-658.87292	294.58997	344.70111	-626.46368	309.93652	328.01282	-675.18073	301.63419	367.88489	-679.26093	416.56522	129.34303	-591.29187	331.49658	127.17453	-568.51117	373.99463	69.74741	-485.65170	375.49039	37.22090	-788.26929	407.11807	46.99835	-697.03253	285.36810	39.56290	-673.61041	553.41211	729.78070	-1047.37780	545.87152	666.03278	-1066.13750	595.00793	632.86310	-1048.92600	598.79608	689.55023	-1034.67370	463.11441	528.27448	-1067.74410	594.33453	529.69275	-1039.23290	608.19391	430.98843	-1091.15040	598.16504	403.18011	-1118.27430	588.76898	360.49814	-1144.56250	613.20642	341.98862	-1100.11940	509.60178	164.66605	-1212.85310	589.75464	133.84264	-1176.63990	525.07434	52.44899	-1153.99670	590.03912	190.45644	-1412.98330	540.67950	141.54405	-1346.52250	648.14771	125.75346	-1303.07980	407.71802	1471.91970	-799.74451	411.01413	1224.14760	-711.98645	249.43057	1432.30800	-878.45142	570.02252	1442.04940	-836.19592	425.31607	1388.81090	-946.50623	518.69788	1376.76900	-722.29590
3448	17.23	303.31622	931.84827	-908.99817	560.98657	948.45844	-937.52417	404.25162	968.42114	-698.08459	527.56854	960.85406	-712.15521	312.32773	646.58118	-868.45764	304.78137	620.39636	-839.18207	354.58685	577.39709	-828.59009	335.24847	608.60150	-848.99011	433.45917	503.05927	-737.88239	308.68304	512.38019	-708.78607	290.39426	422.51837	-656.13745	294.55222	345.03452	-623.19159	309.63318	327.85907	-672.08466	301.54376	367.90402	-676.23376	416.76981	130.19212	-585.83008	331.51678	128.00917	-563.10547	374.17920	70.99129	-479.82428	375.29550	36.92590	-782.11987	406.99594	47.04188	-690.95892	285.60855	39.42603	-667.36194	553.99194	728.76794	-1047.77210	546.20190	665.01605	-1066.45670	594.71973	631.62537	-1048.89120	599.45697	688.44702	-1034.33410	462.75098	527.80878	-1068.30590	593.81964	528.38232	-1039.24780	607.36401	429.99130	-1091.96200	597.28528	402.24759	-1119.14770	587.71503	359.66147	-1145.59840	612.27612	341.08951	-1101.34200	508.87991	164.38440	-1214.38280	588.37988	133.03470	-1178.28870	523.63458	51.60062	-1155.98360	588.96698	190.73611	-1414.33890	539.44574	141.64984	-1348.16580	646.93964	125.37658	-1304.64970	408.67120	1470.67930	-799.92413	411.94540	1223.05470	-712.03070	250.44579	1431.09900	-878.81976	570.96985	1440.71740	-836.44843	426.28680	1387.54710	-946.81934	519.58905	1375.44760	-722.56787
